<svg width="200" height="200" viewBox="0 0 200 200" fill="none" xmlns="http://www.w3.org/2000/svg">
<g filter="url(#filter0_i_2_87)">
<path d="M200 100C200 155.228 155.228 200 100 200C44.7715 200 0 155.228 0 100C0 44.7715 44.7715 0 100 0C155.228 0 200 44.7715 200 100Z" fill="url(#paint0_radial_2_87)"/>
</g>
<g filter="url(#filter1_i_2_87)">
<circle cx="99.5" cy="99.5" r="76.5" fill="#C4C4C4"/>
</g>
<path d="M128.474 78.0434C127.947 77.8346 127.381 77.7431 126.815 77.7749C126.047 77.8291 125.429 78.1424 125.061 78.6563C122.901 81.7044 121.13 87.4603 119.702 92.0868C119.047 94.2251 118.166 97.0874 117.531 98.4461C116.867 94.64 117.617 80.6969 117.908 75.3274L117.912 75.2407C118.114 71.5105 118.141 70.8556 118.098 70.5681C117.777 68.522 116.962 67.1783 115.675 66.5776C114.373 65.9675 112.684 66.2386 110.863 67.341C109.951 67.8969 109.698 69.8034 108.916 78.4461L108.913 78.4841C108.482 83.2325 107.488 94.1668 106.266 95.9891C104.888 93.44 102.992 78.9654 102.173 72.6997C101.6 68.3119 101.266 65.7925 101.041 65.0319C100.57 63.4373 98.5765 62.0814 96.6032 62.0054C94.96 61.9241 93.613 62.7647 92.9692 64.2264C91.765 65.5756 92.1907 70.0461 93.5214 80.6359C94.1545 85.6773 95.461 96.0868 94.6394 97.2556C92.9975 97.0752 90.181 90.5546 86.2682 77.8671C85.1691 74.3146 84.8296 73.2461 84.4929 72.7783C83.8275 71.1485 81.5673 69.8915 79.5416 70.0339C79.3711 70.0458 79.2016 70.068 79.0338 70.1003C77.9737 70.3119 75.5533 71.2949 76.0705 75.8305C77.4982 82.118 79.0513 86.7335 80.5571 91.2149L80.5881 91.3044C81.4892 93.9891 82.3418 96.5247 83.1338 99.3383C84.9993 105.982 84.2733 110.104 84.2653 110.152C84.2033 110.575 84.0727 110.834 83.8773 110.925C83.7942 110.961 83.7052 110.982 83.6147 110.986C83.022 111.026 82.1358 110.633 81.6791 110.376C80.6339 108.366 75.4347 98.7905 70.7231 97.4617L70.5534 97.4115L70.3824 97.4278C68.6542 97.5918 67.3841 98.2495 66.6069 99.3817C65.3758 101.171 65.8863 103.452 66.0089 103.91L66.0789 104.073C66.1166 104.142 69.8961 111.077 70.4807 114.302C70.9845 117.068 73.5935 120.065 75.692 122.473L75.7782 122.572C76.4625 123.359 77.0524 124.041 77.5184 124.671C83.6053 131.062 93.2305 136.437 93.3086 136.481C94.5101 137.372 95.1768 138.235 95.2482 138.976C95.281 139.257 95.2037 139.539 95.0327 139.763L94.8239 139.982L96.1547 141.284L121.549 139.489L122.631 134.494C125.98 120.389 125.281 108.362 125.269 108.283C125.282 107.84 126.22 103.561 126.974 100.103L126.997 100.015C128.501 93.1268 130.371 84.5573 130.731 81.299C130.887 79.9051 130.001 78.6251 128.474 78.0434Z" fill="#3B4262"/>
<defs>
<filter id="filter0_i_2_87" x="-4" y="-4" width="204" height="204" filterUnits="userSpaceOnUse" color-interpolation-filters="sRGB">
<feFlood flood-opacity="0" result="BackgroundImageFix"/>
<feBlend mode="normal" in="SourceGraphic" in2="BackgroundImageFix" result="shape"/>
<feColorMatrix in="SourceAlpha" type="matrix" values="0 0 0 0 0 0 0 0 0 0 0 0 0 0 0 0 0 0 127 0" result="hardAlpha"/>
<feOffset dx="-4" dy="-9"/>
<feGaussianBlur stdDeviation="2"/>
<feComposite in2="hardAlpha" operator="arithmetic" k2="-1" k3="1"/>
<feColorMatrix type="matrix" values="0 0 0 0 0 0 0 0 0 0 0 0 0 0 0 0 0 0 0.25 0"/>
<feBlend mode="normal" in2="shape" result="effect1_innerShadow_2_87"/>
</filter>
<filter id="filter1_i_2_87" x="23" y="23" width="157" height="157" filterUnits="userSpaceOnUse" color-interpolation-filters="sRGB">
<feFlood flood-opacity="0" result="BackgroundImageFix"/>
<feBlend mode="normal" in="SourceGraphic" in2="BackgroundImageFix" result="shape"/>
<feColorMatrix in="SourceAlpha" type="matrix" values="0 0 0 0 0 0 0 0 0 0 0 0 0 0 0 0 0 0 127 0" result="hardAlpha"/>
<feOffset dx="4" dy="9"/>
<feGaussianBlur stdDeviation="2"/>
<feComposite in2="hardAlpha" operator="arithmetic" k2="-1" k3="1"/>
<feColorMatrix type="matrix" values="0 0 0 0 0 0 0 0 0 0 0 0 0 0 0 0 0 0 0.25 0"/>
<feBlend mode="normal" in2="shape" result="effect1_innerShadow_2_87"/>
</filter>
<radialGradient id="paint0_radial_2_87" cx="0" cy="0" r="1" gradientUnits="userSpaceOnUse" gradientTransform="translate(100 100) rotate(90) scale(100)">
<stop stop-color="#4865F4"/>
<stop offset="1" stop-color="#5671F5"/>
</radialGradient>
</defs>
</svg>
