<svg width="200" height="200" viewBox="0 0 200 200" fill="none" xmlns="http://www.w3.org/2000/svg">
<g filter="url(#filter0_i_2_94)">
<path d="M200 100C200 155.228 155.228 200 100 200C44.7715 200 0 155.228 0 100C0 44.7715 44.7715 0 100 0C155.228 0 200 44.7715 200 100Z" fill="url(#paint0_radial_2_94)"/>
</g>
<g filter="url(#filter1_i_2_94)">
<circle cx="99.5" cy="99.5" r="76.5" fill="#C4C4C4"/>
</g>
<path d="M129.019 83.5479C128.149 72.5846 115.837 73.7045 115.837 73.7045C110.641 64.5435 102.523 71.179 102.523 71.179C96.2858 62.2008 88.4669 70.5208 88.4669 70.5208C74.9834 69.0665 75.5061 80.0894 75.5061 80.0894C75.1893 83.594 77.406 94.4341 77.406 94.4341C75.4059 88.1859 71.0685 93.3724 71.0685 93.3724C65.7331 101.603 69.7482 106.108 69.7482 106.108C76.9659 114.566 92.3466 124.719 92.3466 124.719C97.9163 127.909 95.56 130.754 95.56 130.754L129.246 125.189L130.019 118.8C135.141 103.313 129.019 83.5479 129.019 83.5479Z" fill="#3B4262"/>
<defs>
<filter id="filter0_i_2_94" x="0" y="-4" width="200" height="204" filterUnits="userSpaceOnUse" color-interpolation-filters="sRGB">
<feFlood flood-opacity="0" result="BackgroundImageFix"/>
<feBlend mode="normal" in="SourceGraphic" in2="BackgroundImageFix" result="shape"/>
<feColorMatrix in="SourceAlpha" type="matrix" values="0 0 0 0 0 0 0 0 0 0 0 0 0 0 0 0 0 0 127 0" result="hardAlpha"/>
<feOffset dy="-9"/>
<feGaussianBlur stdDeviation="2"/>
<feComposite in2="hardAlpha" operator="arithmetic" k2="-1" k3="1"/>
<feColorMatrix type="matrix" values="0 0 0 0 0 0 0 0 0 0 0 0 0 0 0 0 0 0 0.25 0"/>
<feBlend mode="normal" in2="shape" result="effect1_innerShadow_2_94"/>
</filter>
<filter id="filter1_i_2_94" x="23" y="23" width="153" height="157" filterUnits="userSpaceOnUse" color-interpolation-filters="sRGB">
<feFlood flood-opacity="0" result="BackgroundImageFix"/>
<feBlend mode="normal" in="SourceGraphic" in2="BackgroundImageFix" result="shape"/>
<feColorMatrix in="SourceAlpha" type="matrix" values="0 0 0 0 0 0 0 0 0 0 0 0 0 0 0 0 0 0 127 0" result="hardAlpha"/>
<feOffset dy="9"/>
<feGaussianBlur stdDeviation="2"/>
<feComposite in2="hardAlpha" operator="arithmetic" k2="-1" k3="1"/>
<feColorMatrix type="matrix" values="0 0 0 0 0 0 0 0 0 0 0 0 0 0 0 0 0 0 0.25 0"/>
<feBlend mode="normal" in2="shape" result="effect1_innerShadow_2_94"/>
</filter>
<radialGradient id="paint0_radial_2_94" cx="0" cy="0" r="1" gradientUnits="userSpaceOnUse" gradientTransform="translate(100 100) rotate(90) scale(100)">
<stop stop-color="#DC2E4E"/>
<stop offset="1" stop-color="#DD405D"/>
</radialGradient>
</defs>
</svg>
